<mxfile host="app.diagrams.net" modified="2023-10-27T16:29:51.226Z" agent="Mozilla/5.0 (Windows NT 10.0; Win64; x64) AppleWebKit/537.36 (KHTML, like Gecko) Chrome/118.0.0.0 Safari/537.36" etag="VqG4W83un9xd6rftr_XG" version="22.0.8" type="device">
  <diagram name="Page-1" id="bHSluQ3c_yZBWLIRo55m">
    <mxGraphModel dx="1434" dy="790" grid="1" gridSize="10" guides="1" tooltips="1" connect="1" arrows="1" fold="1" page="1" pageScale="1" pageWidth="850" pageHeight="1100" math="0" shadow="0">
      <root>
        <mxCell id="0" />
        <mxCell id="1" parent="0" />
        <mxCell id="TveXbVkSqk2RWkGlqGDy-5" value="" style="swimlane;html=1;startSize=20;fontStyle=0;collapsible=0;horizontal=0;swimlaneLine=1;swimlaneFillColor=#ffffff;strokeWidth=2;whiteSpace=wrap;" parent="1" vertex="1">
          <mxGeometry x="80" y="390" width="1220" height="100" as="geometry" />
        </mxCell>
        <UserObject label="Innsida" placeholders="1" name="Variable" id="TveXbVkSqk2RWkGlqGDy-6">
          <mxCell style="text;html=1;strokeColor=none;fillColor=none;align=center;verticalAlign=middle;whiteSpace=wrap;overflow=hidden;rotation=-90;" parent="TveXbVkSqk2RWkGlqGDy-5" vertex="1">
            <mxGeometry x="-30" y="40" width="80" height="20" as="geometry" />
          </mxCell>
        </UserObject>
        <mxCell id="TveXbVkSqk2RWkGlqGDy-1" value="Student" style="swimlane;startSize=20;horizontal=0;html=1;whiteSpace=wrap;direction=south;" parent="1" vertex="1">
          <mxGeometry x="80" y="90" width="1220" height="260" as="geometry" />
        </mxCell>
        <mxCell id="TveXbVkSqk2RWkGlqGDy-2" value="" style="points=[[0.145,0.145,0],[0.5,0,0],[0.855,0.145,0],[1,0.5,0],[0.855,0.855,0],[0.5,1,0],[0.145,0.855,0],[0,0.5,0]];shape=mxgraph.bpmn.event;html=1;verticalLabelPosition=bottom;labelBackgroundColor=#ffffff;verticalAlign=top;align=center;perimeter=ellipsePerimeter;outlineConnect=0;aspect=fixed;outline=standard;symbol=general;" parent="TveXbVkSqk2RWkGlqGDy-1" vertex="1">
          <mxGeometry x="80" y="105" width="50" height="50" as="geometry" />
        </mxCell>
        <UserObject label="&lt;font style=&quot;font-size: 12px;&quot;&gt;Student wants to check weekly schedule&lt;/font&gt;" placeholders="1" name="Variable" id="TveXbVkSqk2RWkGlqGDy-3">
          <mxCell style="text;html=1;strokeColor=none;fillColor=none;align=center;verticalAlign=middle;whiteSpace=wrap;overflow=hidden;" parent="TveXbVkSqk2RWkGlqGDy-1" vertex="1">
            <mxGeometry x="30" y="60" width="150" height="35" as="geometry" />
          </mxCell>
        </UserObject>
        <mxCell id="TveXbVkSqk2RWkGlqGDy-12" style="edgeStyle=orthogonalEdgeStyle;rounded=0;orthogonalLoop=1;jettySize=auto;html=1;entryX=0.5;entryY=1;entryDx=0;entryDy=0;entryPerimeter=0;dashed=1;dashPattern=8 8;startArrow=oval;startFill=1;" parent="TveXbVkSqk2RWkGlqGDy-1" source="TveXbVkSqk2RWkGlqGDy-14" target="TveXbVkSqk2RWkGlqGDy-11" edge="1">
          <mxGeometry relative="1" as="geometry">
            <mxPoint x="270" y="300" as="targetPoint" />
            <mxPoint x="270" y="300" as="sourcePoint" />
          </mxGeometry>
        </mxCell>
        <mxCell id="TveXbVkSqk2RWkGlqGDy-11" value="Go to innsida" style="points=[[0.25,0,0],[0.5,0,0],[0.75,0,0],[1,0.25,0],[1,0.5,0],[1,0.75,0],[0.75,1,0],[0.5,1,0],[0.25,1,0],[0,0.75,0],[0,0.5,0],[0,0.25,0]];shape=mxgraph.bpmn.task;whiteSpace=wrap;rectStyle=rounded;size=10;html=1;container=1;expand=0;collapsible=0;taskMarker=abstract;" parent="TveXbVkSqk2RWkGlqGDy-1" vertex="1">
          <mxGeometry x="210" y="90" width="120" height="80" as="geometry" />
        </mxCell>
        <mxCell id="TveXbVkSqk2RWkGlqGDy-13" style="edgeStyle=orthogonalEdgeStyle;rounded=0;orthogonalLoop=1;jettySize=auto;html=1;entryX=0;entryY=0.5;entryDx=0;entryDy=0;entryPerimeter=0;" parent="TveXbVkSqk2RWkGlqGDy-1" source="TveXbVkSqk2RWkGlqGDy-2" target="TveXbVkSqk2RWkGlqGDy-11" edge="1">
          <mxGeometry relative="1" as="geometry" />
        </mxCell>
        <mxCell id="TveXbVkSqk2RWkGlqGDy-15" value="" style="edgeStyle=orthogonalEdgeStyle;rounded=0;orthogonalLoop=1;jettySize=auto;html=1;entryX=0.5;entryY=1;entryDx=0;entryDy=0;entryPerimeter=0;dashed=1;dashPattern=8 8;startArrow=oval;startFill=1;" parent="TveXbVkSqk2RWkGlqGDy-1" target="TveXbVkSqk2RWkGlqGDy-14" edge="1">
          <mxGeometry relative="1" as="geometry">
            <mxPoint x="350" y="260" as="targetPoint" />
            <mxPoint x="270" y="300" as="sourcePoint" />
          </mxGeometry>
        </mxCell>
        <UserObject label="Get link to schedule page" placeholders="1" name="Variable" id="TveXbVkSqk2RWkGlqGDy-14">
          <mxCell style="text;html=1;strokeColor=none;fillColor=none;align=center;verticalAlign=middle;whiteSpace=wrap;overflow=hidden;" parent="TveXbVkSqk2RWkGlqGDy-1" vertex="1">
            <mxGeometry x="192.5" y="213" width="155" height="20" as="geometry" />
          </mxCell>
        </UserObject>
        <mxCell id="TveXbVkSqk2RWkGlqGDy-16" value="Go to schedule page" style="points=[[0.25,0,0],[0.5,0,0],[0.75,0,0],[1,0.25,0],[1,0.5,0],[1,0.75,0],[0.75,1,0],[0.5,1,0],[0.25,1,0],[0,0.75,0],[0,0.5,0],[0,0.25,0]];shape=mxgraph.bpmn.task;whiteSpace=wrap;rectStyle=rounded;size=10;html=1;container=1;expand=0;collapsible=0;taskMarker=abstract;" parent="TveXbVkSqk2RWkGlqGDy-1" vertex="1">
          <mxGeometry x="380" y="90" width="120" height="80" as="geometry" />
        </mxCell>
        <mxCell id="TveXbVkSqk2RWkGlqGDy-17" style="edgeStyle=orthogonalEdgeStyle;rounded=0;orthogonalLoop=1;jettySize=auto;html=1;entryX=0;entryY=0.5;entryDx=0;entryDy=0;entryPerimeter=0;" parent="TveXbVkSqk2RWkGlqGDy-1" source="TveXbVkSqk2RWkGlqGDy-11" target="TveXbVkSqk2RWkGlqGDy-16" edge="1">
          <mxGeometry relative="1" as="geometry" />
        </mxCell>
        <mxCell id="TveXbVkSqk2RWkGlqGDy-19" style="edgeStyle=orthogonalEdgeStyle;rounded=0;orthogonalLoop=1;jettySize=auto;html=1;entryX=0;entryY=0.5;entryDx=0;entryDy=0;entryPerimeter=0;" parent="TveXbVkSqk2RWkGlqGDy-1" source="TveXbVkSqk2RWkGlqGDy-16" edge="1">
          <mxGeometry relative="1" as="geometry">
            <mxPoint x="549.9999999999998" y="130" as="targetPoint" />
          </mxGeometry>
        </mxCell>
        <mxCell id="TveXbVkSqk2RWkGlqGDy-20" style="edgeStyle=orthogonalEdgeStyle;rounded=0;orthogonalLoop=1;jettySize=auto;html=1;entryX=0.5;entryY=1;entryDx=0;entryDy=0;entryPerimeter=0;dashed=1;dashPattern=8 8;startArrow=oval;startFill=1;" parent="TveXbVkSqk2RWkGlqGDy-1" source="TveXbVkSqk2RWkGlqGDy-22" edge="1">
          <mxGeometry relative="1" as="geometry">
            <mxPoint x="610" y="170" as="targetPoint" />
            <mxPoint x="610" y="430" as="sourcePoint" />
          </mxGeometry>
        </mxCell>
        <mxCell id="TveXbVkSqk2RWkGlqGDy-21" value="Go to blackboard calendar" style="points=[[0.25,0,0],[0.5,0,0],[0.75,0,0],[1,0.25,0],[1,0.5,0],[1,0.75,0],[0.75,1,0],[0.5,1,0],[0.25,1,0],[0,0.75,0],[0,0.5,0],[0,0.25,0]];shape=mxgraph.bpmn.task;whiteSpace=wrap;rectStyle=rounded;size=10;html=1;container=1;expand=0;collapsible=0;taskMarker=abstract;" parent="TveXbVkSqk2RWkGlqGDy-1" vertex="1">
          <mxGeometry x="720" y="90" width="120" height="80" as="geometry" />
        </mxCell>
        <mxCell id="TveXbVkSqk2RWkGlqGDy-23" value="" style="edgeStyle=orthogonalEdgeStyle;rounded=0;orthogonalLoop=1;jettySize=auto;html=1;entryX=0.5;entryY=1;entryDx=0;entryDy=0;entryPerimeter=0;dashed=1;dashPattern=8 8;startArrow=oval;startFill=1;" parent="TveXbVkSqk2RWkGlqGDy-1" target="TveXbVkSqk2RWkGlqGDy-22" edge="1">
          <mxGeometry relative="1" as="geometry">
            <mxPoint x="690" y="260" as="targetPoint" />
            <mxPoint x="690" y="520" as="sourcePoint" />
          </mxGeometry>
        </mxCell>
        <UserObject label="Information about lecture schedule" placeholders="1" name="Variable" id="TveXbVkSqk2RWkGlqGDy-22">
          <mxCell style="text;html=1;strokeColor=none;fillColor=none;align=center;verticalAlign=middle;whiteSpace=wrap;overflow=hidden;" parent="TveXbVkSqk2RWkGlqGDy-1" vertex="1">
            <mxGeometry x="550" y="210" width="120" height="30" as="geometry" />
          </mxCell>
        </UserObject>
        <mxCell id="TveXbVkSqk2RWkGlqGDy-24" style="edgeStyle=orthogonalEdgeStyle;rounded=0;orthogonalLoop=1;jettySize=auto;html=1;entryX=0;entryY=0.5;entryDx=0;entryDy=0;entryPerimeter=0;" parent="TveXbVkSqk2RWkGlqGDy-1" target="TveXbVkSqk2RWkGlqGDy-21" edge="1">
          <mxGeometry relative="1" as="geometry">
            <mxPoint x="670" y="130" as="sourcePoint" />
          </mxGeometry>
        </mxCell>
        <UserObject label="Assignment deadlines" placeholders="1" name="Variable" id="TveXbVkSqk2RWkGlqGDy-26">
          <mxCell style="text;html=1;strokeColor=none;fillColor=none;align=center;verticalAlign=middle;whiteSpace=wrap;overflow=hidden;" parent="TveXbVkSqk2RWkGlqGDy-1" vertex="1">
            <mxGeometry x="715" y="216" width="130" height="20" as="geometry" />
          </mxCell>
        </UserObject>
        <mxCell id="TveXbVkSqk2RWkGlqGDy-25" style="edgeStyle=orthogonalEdgeStyle;rounded=0;orthogonalLoop=1;jettySize=auto;html=1;dashed=1;dashPattern=8 8;startArrow=oval;startFill=1;entryX=0.5;entryY=1;entryDx=0;entryDy=0;entryPerimeter=0;exitX=0.5;exitY=0;exitDx=0;exitDy=0;" parent="TveXbVkSqk2RWkGlqGDy-1" source="TveXbVkSqk2RWkGlqGDy-26" target="TveXbVkSqk2RWkGlqGDy-21" edge="1">
          <mxGeometry relative="1" as="geometry">
            <mxPoint x="810" y="540" as="sourcePoint" />
            <mxPoint x="760" y="230" as="targetPoint" />
          </mxGeometry>
        </mxCell>
        <mxCell id="TveXbVkSqk2RWkGlqGDy-31" style="edgeStyle=orthogonalEdgeStyle;rounded=0;orthogonalLoop=1;jettySize=auto;html=1;" parent="TveXbVkSqk2RWkGlqGDy-1" source="TveXbVkSqk2RWkGlqGDy-28" target="TveXbVkSqk2RWkGlqGDy-30" edge="1">
          <mxGeometry relative="1" as="geometry" />
        </mxCell>
        <mxCell id="TveXbVkSqk2RWkGlqGDy-28" value="Plan week" style="points=[[0.25,0,0],[0.5,0,0],[0.75,0,0],[1,0.25,0],[1,0.5,0],[1,0.75,0],[0.75,1,0],[0.5,1,0],[0.25,1,0],[0,0.75,0],[0,0.5,0],[0,0.25,0]];shape=mxgraph.bpmn.task;whiteSpace=wrap;rectStyle=rounded;size=10;html=1;container=1;expand=0;collapsible=0;taskMarker=abstract;" parent="TveXbVkSqk2RWkGlqGDy-1" vertex="1">
          <mxGeometry x="900" y="90" width="120" height="80" as="geometry" />
        </mxCell>
        <mxCell id="TveXbVkSqk2RWkGlqGDy-29" style="edgeStyle=orthogonalEdgeStyle;rounded=0;orthogonalLoop=1;jettySize=auto;html=1;entryX=0;entryY=0.5;entryDx=0;entryDy=0;entryPerimeter=0;" parent="TveXbVkSqk2RWkGlqGDy-1" source="TveXbVkSqk2RWkGlqGDy-21" target="TveXbVkSqk2RWkGlqGDy-28" edge="1">
          <mxGeometry relative="1" as="geometry" />
        </mxCell>
        <mxCell id="TveXbVkSqk2RWkGlqGDy-30" value="" style="points=[[0.145,0.145,0],[0.5,0,0],[0.855,0.145,0],[1,0.5,0],[0.855,0.855,0],[0.5,1,0],[0.145,0.855,0],[0,0.5,0]];shape=mxgraph.bpmn.event;html=1;verticalLabelPosition=bottom;labelBackgroundColor=#ffffff;verticalAlign=top;align=center;perimeter=ellipsePerimeter;outlineConnect=0;aspect=fixed;outline=end;symbol=terminate2;" parent="TveXbVkSqk2RWkGlqGDy-1" vertex="1">
          <mxGeometry x="1090" y="105" width="50" height="50" as="geometry" />
        </mxCell>
        <mxCell id="TveXbVkSqk2RWkGlqGDy-33" value="Enter courses" style="points=[[0.25,0,0],[0.5,0,0],[0.75,0,0],[1,0.25,0],[1,0.5,0],[1,0.75,0],[0.75,1,0],[0.5,1,0],[0.25,1,0],[0,0.75,0],[0,0.5,0],[0,0.25,0]];shape=mxgraph.bpmn.task;whiteSpace=wrap;rectStyle=rounded;size=10;html=1;container=1;expand=0;collapsible=0;taskMarker=abstract;isLoopSub=1;" parent="TveXbVkSqk2RWkGlqGDy-1" vertex="1">
          <mxGeometry x="550" y="90" width="120" height="80" as="geometry" />
        </mxCell>
        <UserObject label="&lt;font style=&quot;font-size: 12px;&quot;&gt;Finished checking schedule&lt;/font&gt;" placeholders="1" name="Variable" id="QKLVD37axltY7WbSrZbr-1">
          <mxCell style="text;html=1;strokeColor=none;fillColor=none;align=center;verticalAlign=middle;whiteSpace=wrap;overflow=hidden;" vertex="1" parent="TveXbVkSqk2RWkGlqGDy-1">
            <mxGeometry x="1040" y="55" width="150" height="35" as="geometry" />
          </mxCell>
        </UserObject>
        <mxCell id="TveXbVkSqk2RWkGlqGDy-7" value="" style="swimlane;html=1;startSize=20;fontStyle=0;collapsible=0;horizontal=0;swimlaneLine=1;swimlaneFillColor=#ffffff;strokeWidth=2;whiteSpace=wrap;" parent="1" vertex="1">
          <mxGeometry x="80" y="520" width="1220" height="100" as="geometry" />
        </mxCell>
        <UserObject label="Educloud" placeholders="1" name="Variable" id="TveXbVkSqk2RWkGlqGDy-8">
          <mxCell style="text;html=1;strokeColor=none;fillColor=none;align=center;verticalAlign=middle;whiteSpace=wrap;overflow=hidden;rotation=-90;" parent="TveXbVkSqk2RWkGlqGDy-7" vertex="1">
            <mxGeometry x="-30" y="40" width="80" height="20" as="geometry" />
          </mxCell>
        </UserObject>
        <mxCell id="TveXbVkSqk2RWkGlqGDy-9" value="" style="swimlane;html=1;startSize=20;fontStyle=0;collapsible=0;horizontal=0;swimlaneLine=1;swimlaneFillColor=#ffffff;strokeWidth=2;whiteSpace=wrap;" parent="1" vertex="1">
          <mxGeometry x="80" y="650" width="1220" height="100" as="geometry" />
        </mxCell>
        <UserObject label="Blackboard" placeholders="1" name="Variable" id="TveXbVkSqk2RWkGlqGDy-10">
          <mxCell style="text;html=1;strokeColor=none;fillColor=none;align=center;verticalAlign=middle;whiteSpace=wrap;overflow=hidden;rotation=-90;" parent="TveXbVkSqk2RWkGlqGDy-9" vertex="1">
            <mxGeometry x="-30" y="40" width="80" height="20" as="geometry" />
          </mxCell>
        </UserObject>
        <mxCell id="TveXbVkSqk2RWkGlqGDy-27" value="" style="edgeStyle=orthogonalEdgeStyle;rounded=0;orthogonalLoop=1;jettySize=auto;html=1;dashed=1;dashPattern=8 8;startArrow=oval;startFill=1;entryX=0.5;entryY=1;entryDx=0;entryDy=0;entryPerimeter=0;" parent="1" target="TveXbVkSqk2RWkGlqGDy-26" edge="1">
          <mxGeometry relative="1" as="geometry">
            <mxPoint x="860" y="650" as="sourcePoint" />
            <mxPoint x="860" y="260" as="targetPoint" />
          </mxGeometry>
        </mxCell>
      </root>
    </mxGraphModel>
  </diagram>
</mxfile>
